<?xml version="1.0" encoding="utf-8"?>
<!-- Generator: Adobe Illustrator 19.0.0, SVG Export Plug-In . SVG Version: 6.00 Build 0)  -->
<svg version="1.1" id="Calque_1" xmlns="http://www.w3.org/2000/svg" xmlns:xlink="http://www.w3.org/1999/xlink" x="0px" y="0px"
	 viewBox="0 0 1920 1018" style="enable-background:new 0 0 1920 1018;" xml:space="preserve">
<style type="text/css">
	.st0{fill:#17202A;}
	.st1{fill:#1C2833;}
	.st2{display:none;}
	.st3{display:inline;}
	.st4{display:inline;fill:#1C2833;}
	.st5{opacity:0.5;}
</style>
<rect id="XMLID_1103_" class="st0" width="1920" height="1018"/>
<g id="XMLID_21_">
	<path id="XMLID_19_" class="st1" d="M1312.8,402l-9-18.9l-18.1,10.5l-12.2-16.4l15.1-14.3l-15.5-14l11.8-16.8l18.4,9.9l8.4-19
		l19.7,6.1l-3.9,20.6l20.8,2l0.3,20.5l-20.9,2.8l4.5,20.4L1312.8,402z M1306.4,374.6l9.5,20l9.2-3.1l-4.8-21.5l22.1-2.9l-0.1-9.8
		l-22-2.1l4.1-21.8l-9.5-2.9l-8.8,20.1l-19.4-10.5l-5.7,8.1l16.4,14.8l-15.9,15.1l5.8,7.8L1306.4,374.6z"/>
</g>
<g id="XMLID_18_">
	<path id="XMLID_24_" class="st1" d="M928.3,692.4l-3.5-20.5l-20.3,5.1l-7.3-19.2l18.5-9.7l-11.1-17.6l16.1-13l14.9,14.7l13.3-16.2
		l17.2,11.2l-9.3,18.9l19.4,7.6l-5.3,19.7l-20.8-3.1l-1.4,20.9L928.3,692.4z M929.7,664.6l3.7,21.6l9.7-0.5l1.5-22.1l21.9,3.2
		l2.5-9.4l-20.5-8l9.9-19.9l-8.2-5.4l-14,17.1l-15.8-15.6l-7.8,6.3l11.8,18.5l-19.5,10.3l3.5,9.2L929.7,664.6z"/>
</g>
<g id="XMLID_15_">
	<path id="XMLID_16_" class="st1" d="M423.1,733.7l-1.9-15l20.7-5.2l-6.8-20.4l13.7-6.5l11.4,18.2l17.1-12.8l10.5,11.1l-13.9,16.5
		l17.6,12.3l-7.3,13.3l-20.1-8.1l-6.2,20.5l-14.8-2.8l1.5-21.5L423.1,733.7z"/>
</g>
<g id="XMLID_12_">
	<path id="XMLID_13_" class="st1" d="M1121.6,234.2l-15,1.6l-4.8-20.8l-20.5,6.4l-6.2-13.9l18.4-11.1l-12.5-17.4l11.3-10.3
		l16.2,14.2l12.7-17.4l13.2,7.5l-8.5,19.9l20.4,6.6l-3,14.8l-21.5-1.9L1121.6,234.2z"/>
</g>
<g id="XMLID_7_">
	<path id="XMLID_8_" class="st1" d="M116.1,232.5l-15.1-0.1l-2.4-21.2l-21.1,4l-4.6-14.5l19.5-8.9l-10.4-18.7l12.4-8.9l14.5,16
		l14.6-15.8l12.2,9l-10.7,18.8l19.5,8.9l-4.7,14.3l-21.1-4.4L116.1,232.5z"/>
</g>
<g id="XMLID_4_">
	<path id="XMLID_5_" class="st1" d="M1699.8,237.8l-9.4-11.8l14.9-15.3l-16.5-13.8l8.3-12.7l19.2,9.5l7.9-19.9l14.8,4l-3.2,21.3
		l21.5,1.3l0.8,15.2l-21.4,3.6l5.4,20.8l-14.1,5.4l-10-19.1L1699.8,237.8z"/>
</g>
<g id="XMLID_1_">
	<path id="XMLID_68_" class="st1" d="M467.5,235.9l-7.6-19.5l-18.9,9.2l-11-17.2l16.1-13.2l-14.5-15.1l13-15.9l17.6,11.3l9.7-18.4
		l19.2,7.5l-5.4,20.2l20.6,3.5l-1.2,20.5l-21,1.2l3,20.6L467.5,235.9z M463.1,208.2l8,20.6l9.4-2.5l-3.2-21.8l22.2-1.3l0.6-9.8
		l-21.8-3.7l5.7-21.4l-9.3-3.6L464.5,184l-18.6-11.9l-6.3,7.6l15.3,16l-17,13.9l5.2,8.2L463.1,208.2z"/>
</g>
<g id="XMLID_1091_">
	<path id="XMLID_1092_" class="st1" d="M1857.9,780.2c-256.4,77.3-344.4-116-676-107.6C865.8,680.7,807,860.1,516.4,821.9
		c-169.1-22.2-221-92.4-395.2-166.6C84.6,639.7,44.3,624.7,0,611.1V1018h1920V756.4C1901.8,765.1,1881.5,773.1,1857.9,780.2z"/>
</g>
<g id="XMLID_1170_">
	<g id="XMLID_526_">
		<g id="XMLID_541_">
			<g id="XMLID_559_" class="st2">
				<g id="XMLID_575_" class="st3">
					<path id="XMLID_576_" class="st1" d="M444.6,615.2c-17,0-30.3-3.8-39.6-11.4c-9.5-7.7-14.3-16.8-14.3-27.1
						c0-10.9,5.8-21,17.1-29.8c11.1-8.7,27.7-13.1,49.1-13.1c7.9,0,17.6,0.9,29,2.7l11.7-20.5l-22.3,1.7c-6.7,0.1-15.9-0.8-27.2-2.8
						c-11.5-2-21.1-5.4-28.5-10c-7.6-4.7-13.3-10.6-17.1-17.4c-3.8-6.9-5.7-14.2-5.7-21.8c0-12,4.3-22.8,12.8-32
						c5-5.5,13.1-10.6,24.1-15l0-0.3c0-12.3,5.5-26.6,16.2-42.3c10.6-15.4,30.1-34.7,57.9-57.1l1.3-1l84.9,28.4l5.1-9
						c3.2-5.7,4.6-7.3,5.4-8.1c1.5-1.5,3.4-2.3,5.5-2.3c2.1,0,3.9,0.8,5.3,2.3c1.4,1.4,2.1,3.2,2.1,5.1c0,1.6-0.6,4.5-5.1,12.1
						l-38.5,65.4l27.2-1.8c10.2-0.4,22.1,1,35.4,4.3c13.4,3.2,25.1,8.4,34.8,15.2c9.7,6.9,17.5,15.1,23.1,24.5
						c5.6,9.5,8.5,20.1,8.5,31.5c0,20.7-8.7,41.2-25.9,60.9c-17,19.5-47.4,40.3-90.4,61.8l-1.2,0.6l-1.2-0.5
						c-14.7-5.4-32-11.2-51.4-17.2C497.3,607,467.7,615.2,444.6,615.2z M457,539.8c-20.1,0-35.4,4-45.5,11.8
						c-10,7.8-14.8,16-14.8,25.1c0,8.5,4,15.8,12.1,22.5c8.2,6.7,20.3,10.1,35.8,10.1c22.4,0,51.5-8.1,86.6-24.2l1-0.5l1.1,0.3
						c19.4,6,36.7,11.8,51.6,17.2c41.7-20.9,71.1-41,87.4-59.8c16.2-18.7,24.4-37.8,24.4-57c0-10.3-2.6-19.8-7.7-28.4
						c-5.1-8.6-12.3-16.3-21.4-22.6c-9.1-6.4-20.1-11.2-32.8-14.3c-12.8-3.1-24.1-4.5-33.7-4.1l-38.5,2.5l44.3-75.2
						c4.2-7,4.3-8.9,4.3-9.1c0-0.3-0.1-0.6-0.4-0.9c-0.2-0.2-0.5-0.4-1-0.4c-0.4,0-0.7,0.1-1.2,0.6c-0.3,0.3-1.5,1.7-4.4,6.8
						l-7.6,13.3l-86.5-28.9c-26.7,21.7-45.4,40.1-55.5,54.8c-10,14.6-15.1,27.7-15.2,38.7l0.4,4.4l-2.1,0.8
						c-11.2,4.2-19.2,9-23.9,14.2c-7.5,8.2-11.2,17.4-11.2,28c0,6.5,1.7,12.9,4.9,18.9c3.3,6,8.3,11.1,15,15.2
						c6.8,4.2,15.7,7.3,26.4,9.2c10.8,1.9,19.6,2.8,25.9,2.7l33.3-2.6l-19.3,34l-2.1-0.3C475.1,540.8,465,539.8,457,539.8z
						 M445.8,606.7c-13.1,0-23.3-2.5-30.4-7.4c-5-3.3-7.6-7.9-7.6-13.7c0-5.4,2.5-10,7.5-13.6c6.5-4.9,15.5-7.4,26.5-7.4
						c0.1,0,0.1,0,0.2,0c20.3,0,46.6,5.4,78.2,15.9l7.2,2.4l-6.9,3.2C490.5,599.7,465.4,606.7,445.8,606.7z M442,570.6
						c-0.1,0-0.1,0-0.2,0c-9.7,0-17.4,2.1-22.9,6.2c-3.4,2.5-5.1,5.4-5.1,8.8c0,3.7,1.6,6.5,4.9,8.7c6.1,4.2,15.2,6.3,27,6.3
						c17.2,0,39.1-5.7,65.1-16.9C483.3,575,460.1,570.6,442,570.6z M619.2,579.4l-48-12.6l7.6-3.5c26.9-12.3,44.6-22.6,52.6-30.7
						c7.7-7.8,11.6-15.7,11.6-23.8c0-9.3-3.8-17.1-11.7-23.9c-7.9-6.8-19.6-10.2-34.9-10.2c-11.6,0-32.7,1.5-62.7,4.5l-5.8,0.6
						l18.7-32.9l1.5-0.2c19.2-2.3,35.2-3.5,47.6-3.5c15.6,0,29.6,2.8,41.6,8.4c12.2,5.6,21.4,13.3,27.3,22.8
						c5.9,9.5,8.9,19.3,8.9,29.2c0,14.9-4.8,28.8-14.1,41.1c-9.2,12.2-22.4,23.6-39.2,34L619.2,579.4z M588.9,565.2l29.3,7.7
						c15.7-9.8,28-20.5,36.5-31.8c8.6-11.3,12.9-23.9,12.9-37.5c0-8.8-2.7-17.5-8-26.1C654.4,469,646,462.1,635,457
						c-11.2-5.2-24.4-7.8-39.1-7.8c-11.8,0-27.1,1.1-45.4,3.3l-11.5,20.2c27.1-2.6,46.5-3.9,57.5-3.9c16.7,0,29.8,3.9,38.8,11.7
						c9.1,7.9,13.8,17.4,13.8,28.4c0,9.7-4.5,19.1-13.3,28C627.9,544.7,612.5,554,588.9,565.2z M565.8,565.4l-1.1-0.4
						c-19.2-6.6-32.7-11.1-40.1-13.3c-7.4-2.2-17.2-4.6-29-7.2l-4-0.9l19.8-34.8h1.7c8.5,0,26.7-1.5,54.1-4.4
						c9.9-1.2,18.5-1.8,25.4-1.8c6.3,0,11.5,1.9,15.7,5.7c4.2,3.9,6.3,8.3,6.3,13.2c0,14.5-15.6,28.6-47.7,43.3L565.8,565.4z
						 M500.8,539.5c10.2,2.3,18.7,4.5,25.5,6.5c7.4,2.2,20.6,6.6,39.3,13c28.6-13.2,43.1-25.7,43.1-37.3c0-3.2-1.4-6.1-4.4-8.8
						c-3-2.8-6.8-4.2-11.6-4.2c-6.6,0-14.9,0.6-24.7,1.7c-25.9,2.8-43.7,4.2-53,4.4L500.8,539.5z M482.6,482.8
						c-23.5,0-39.8-3.4-49.8-10.4c-7.9-5.6-11.9-13-11.9-21.8c0-9.7,5.1-17.8,15.1-24.2l3-1.9l1.4,3.3c3.3,7.9,8.3,13.8,14.8,17.5
						c6.7,3.8,18.6,5.7,35.2,5.7c15.2,0,31.2-1.2,47.5-3.5l6.1-0.9l-18.8,33.1l-1.5,0.2C507.2,481.8,493.4,482.8,482.6,482.8z
						 M436.4,433.4c-6.3,4.9-9.4,10.5-9.4,17.1c0,6.9,3.1,12.4,9.4,16.9c8.8,6.2,24.4,9.3,46.3,9.3c10.2,0,23.2-0.9,38.8-2.7
						l11.3-19.9c-14.5,1.8-28.7,2.8-42.3,2.8c-17.9,0-30.4-2.1-38.1-6.5C445.5,446.7,440.1,440.9,436.4,433.4z M500.7,422.6
						c-13.6,0-24-3.1-31-9.3c-7-6.3-10.6-14.4-10.6-24.1c0-9.8,4.1-18.5,12.2-25.8c8-7.2,18.4-10.8,31-10.8c8.7,0,18.9,1.7,30.2,5.2
						c11.2,3.4,27,10.1,46.9,20l2.8,1.4l-22.5,39.5l-1.6,0.1C528.6,421.3,509.2,422.6,500.7,422.6z M502.3,358.6
						c-11.1,0-20.1,3.1-27,9.3c-6.9,6.2-10.2,13.1-10.2,21.3c0,8,2.8,14.5,8.6,19.6c5.8,5.2,14.9,7.8,27,7.8
						c8.2,0,26.9-1.2,55.5-3.6l17.8-31.3c-18.3-9-32.8-15.1-43.1-18.2C520,360.2,510.4,358.6,502.3,358.6z"/>
				</g>
				<path id="XMLID_572_" class="st4" d="M592.6,563.1c-16.7,0-30.2-13.6-30.2-30.2s13.6-30.2,30.2-30.2c16.7,0,30.2,13.6,30.2,30.2
					S609.3,563.1,592.6,563.1z M592.6,508.6c-13.4,0-24.2,10.9-24.2,24.2s10.9,24.2,24.2,24.2s24.2-10.9,24.2-24.2
					S606,508.6,592.6,508.6z"/>
				<path id="XMLID_569_" class="st4" d="M604.5,603.5c-43.9,0-79.5-35.7-79.5-79.5c0-43.9,35.7-79.5,79.5-79.5s79.5,35.7,79.5,79.5
					C684.1,567.8,648.4,603.5,604.5,603.5z M604.5,450.4c-40.6,0-73.5,33-73.5,73.5s33,73.5,73.5,73.5s73.5-33,73.5-73.5
					S645.1,450.4,604.5,450.4z"/>
				<path id="XMLID_566_" class="st4" d="M452.2,478.4c-18.6,0-33.7-15.1-33.7-33.7c0-18.6,15.1-33.7,33.7-33.7
					c18.6,0,33.7,15.1,33.7,33.7C485.9,463.3,470.8,478.4,452.2,478.4z M452.2,417c-15.3,0-27.7,12.4-27.7,27.7s12.4,27.7,27.7,27.7
					s27.7-12.4,27.7-27.7S467.4,417,452.2,417z"/>
				<path id="XMLID_563_" class="st4" d="M494.5,422.1c-22.4,0-40.6-18.2-40.6-40.6c0-22.4,18.2-40.6,40.6-40.6
					c22.4,0,40.6,18.2,40.6,40.6C535.2,403.8,516.9,422.1,494.5,422.1z M494.5,346.8c-19.1,0-34.6,15.5-34.6,34.6
					c0,19.1,15.5,34.6,34.6,34.6c19.1,0,34.6-15.5,34.6-34.6C529.2,362.3,513.6,346.8,494.5,346.8z"/>
				<path id="XMLID_560_" class="st4" d="M428.2,613.7c-12.5,0-22.7-10.2-22.7-22.7c0-12.5,10.2-22.7,22.7-22.7
					c12.5,0,22.7,10.2,22.7,22.7C450.9,603.5,440.7,613.7,428.2,613.7z M428.2,574.3c-9.2,0-16.7,7.5-16.7,16.7
					c0,9.2,7.5,16.7,16.7,16.7s16.7-7.5,16.7-16.7C444.9,581.8,437.4,574.3,428.2,574.3z"/>
			</g>
			<g id="XMLID_553_">
				<path id="XMLID_558_" class="st1" d="M564.7,565c-19.2-6.6-32.7-11.1-40.1-13.3c-7.4-2.2-17.2-4.6-29-7.2l1.3-5.9
					c12,2.6,21.9,5.1,29.4,7.3c7.5,2.2,21.1,6.7,40.4,13.4L564.7,565z"/>
				<g id="XMLID_554_">
					<path id="XMLID_555_" class="st1" d="M416.6,610.5c-4.3-1.7-8.2-4-11.6-6.7c-9.5-7.7-14.3-16.8-14.3-27.1
						c0-10.9,5.8-21,17.1-29.8c11.1-8.7,27.7-13.1,49.1-13.1c8.4,0,18.8,1,31.1,3.1l8.7,1.7c12,2.6,21.9,5.1,29.5,7.4
						c7.5,2.2,21.1,6.7,40.4,13.4c0.1,0,9.8,3.2,21.2,6.5l0.1,0c9.9,3.2,20.2,4.8,30.7,4.8c8.7,0,17.4-1.1,25.7-3.3l15.7-4.1
						l-13.2,9.5c-15.9,11.4-36.2,23.3-60.4,35.4l-1.2,0.6l-1.2-0.5c-15-5.5-32.6-11.4-52.5-17.6l-13.3-4.5
						c-30.9-10.4-56.6-15.6-76.3-15.6c-0.1,0-0.1,0-0.2,0c-9.7,0-17.4,2.1-22.9,6.2c-1.2,0.9-2.2,1.8-3,2.8l-0.1,0.2
						c-2.8,3.1-4.4,7.1-4.4,11.3c0,5.8,2.9,11.1,7.9,14.2L416.6,610.5z M442,564.6c20.3,0,46.6,5.4,78.2,15.9l13.2,4.4
						c19.3,6,36.7,11.7,51.5,17.2c17.7-8.9,33.3-17.7,46.5-26.2c-4.2,0.5-8.5,0.8-12.8,0.8c-11.1,0-22-1.7-32.5-5.1
						c-11.4-3.3-21.3-6.5-21.4-6.6c-19.2-6.7-32.7-11.2-40.2-13.4c-7.4-2.2-17.2-4.6-29-7.2l-8.6-1.7c-11.8-2-22-3-30-3
						c-20.1,0-35.4,4-45.5,11.8c-10,7.8-14.8,16-14.8,25.1c0,7.5,3.1,14.2,9.5,20.2c-0.5-1.9-0.8-3.9-0.8-5.9c0-5.6,2.1-11,5.8-15.2
						c1.1-1.4,2.5-2.6,4-3.8c6.5-4.9,15.5-7.4,26.5-7.4C441.9,564.6,442,564.6,442,564.6z"/>
				</g>
			</g>
			<path id="XMLID_550_" class="st1" d="M674.6,549.7l2.3-12.2c0.8-4.4,1.2-9,1.2-13.5c0-30.8-19.5-58.6-48.4-69.1
				c-8-2.9-16.5-4.4-25.1-4.4l-55.9,2.3l-10,0.7c-16.5,2.4-32.7,3.6-48.2,3.6c-17.9,0-30.4-2.1-38.1-6.5
				c-7.8-4.4-13.7-11.3-17.5-20.5l-0.1-0.4c-1.3-5.1-1.1-10.5-1-11.3c0-12.3,5.5-26.5,16.2-42.2c2-2.8,4.2-5.9,6.8-9l10.6-12.9
				l-5.4,15.8c-1.3,3.6-1.9,7.4-1.9,11.3c0,17.1,12.2,31.4,29,34.2c1.8,0.3,3.7,0.4,5.5,0.5l63.4-3.3l43.1-2.9
				c10.2-0.4,22.1,1,35.4,4.3c13.4,3.2,25.1,8.4,34.8,15.2c9.7,6.9,17.5,15.1,23.1,24.5c5.6,9.5,8.5,20.1,8.5,31.5
				c0,18.4-6.9,36.8-20.6,54.5L674.6,549.7z M604.5,444.4L604.5,444.4c9.4,0,18.5,1.6,27.2,4.8c31.3,11.4,52.4,41.4,52.4,74.8
				c0,0.9,0,1.8,0,2.7c8.5-13.6,12.7-27.5,12.7-41.3c0-10.3-2.6-19.8-7.7-28.4c-5.1-8.6-12.3-16.3-21.4-22.6
				c-9.1-6.4-20.1-11.2-32.8-14.3c-12.8-3.1-24.1-4.5-33.7-4.1l-43.1,2.9l-63.7,3.3c-2.2,0-4.4-0.2-6.5-0.5
				c-19.7-3.2-34.1-20.1-34.1-40.1c0-0.2,0-0.3,0-0.5c-9.5,14.1-14.3,26.8-14.3,37.5l0,0.2c0,0-0.3,4.9,0.8,9.3
				c3.3,7.8,8.2,13.7,14.8,17.3c6.7,3.8,18.6,5.7,35.2,5.7c15.2,0,31.2-1.2,47.5-3.5l0.2,0l10.2-0.8L604.5,444.4z"/>
			<path id="XMLID_547_" class="st1" d="M605.2,557l7.5-11.1c2.6-3.9,4.1-9,4.1-14c0-13-10.2-24.4-22-25.1c-0.5,0.4-1.1,0.8-2,0.9
				l-31.7,3.4c-23.8,2.5-39.9,3.7-47.9,3.7l-38,2.9c-6.7,0.1-15.9-0.8-27.2-2.8c-11.5-2-21.1-5.4-28.5-10
				c-7.6-4.7-13.3-10.6-17.1-17.4c-3.8-6.9-5.7-14.2-5.7-21.8c0-12,4.3-22.8,12.8-32c4.2-4.7,10.6-9,19-12.8l14-6.4L432,425.7
				c-4.9,5.2-7.5,11.9-7.5,19c0,7.5,2.9,14.5,8.2,19.7c1.1,1.1,2.3,2.1,3.6,3c8.8,6.2,24.4,9.3,46.3,9.3c10.5,0,24.1-1,40.3-2.9
				l0.1,0l10.1-0.7c30.1-3,51.4-4.5,63.2-4.5c16.7,0,29.8,3.9,38.8,11.7c9.1,7.9,13.8,17.4,13.8,28.3c0,9.7-4.4,18.8-13.3,27.9
				c-3.9,3.9-9.7,8.1-19,13.6L605.2,557z M593.5,500.8h0.2c15.8,0,29.1,14.3,29.1,31.1c0,2.7-0.4,5.4-1,8c4.3-2.8,7.4-5.3,9.6-7.6
				c7.8-7.9,11.6-15.6,11.6-23.6c0-9.2-3.8-17-11.7-23.8c-7.9-6.8-19.6-10.2-34.9-10.2c-11.6,0-32.7,1.5-62.7,4.5l-10.2,0.7
				c-16.4,1.9-30.2,2.9-40.9,2.9c-23.5,0-39.8-3.4-49.8-10.4c-1.6-1.2-3.1-2.4-4.4-3.7c-6.4-6.4-10-14.9-10-24
				c0-4.5,0.9-8.8,2.5-12.8c-2.8,1.9-5.2,3.8-7,5.8c-7.5,8.2-11.2,17.4-11.2,28c0,6.5,1.7,12.9,4.9,18.9c3.3,6,8.3,11.1,15,15.2
				c6.8,4.2,15.7,7.3,26.4,9.2c10.8,1.9,19.6,2.8,25.9,2.7l38-2.9c7.8,0,23.7-1.2,47.4-3.7l30.6-3.3
				C591.6,501.3,592.4,500.8,593.5,500.8z"/>
			<g id="XMLID_542_">
				
					<rect id="XMLID_546_" x="512.1" y="328" transform="matrix(0.9484 0.3171 -0.3171 0.9484 133.7278 -159.6362)" class="st1" width="90.4" height="6"/>
				<path id="XMLID_543_" class="st1" d="M593.4,378l-2.4-1.3c-0.7-0.4-66.9-36.2-120-17l-12.5,4.5l9.4-9.5
					c10.5-10.6,29.7-28.3,44.6-40.4l1.3-1l100.3,33.6L593.4,378z M506.1,347.9c39.1,0,75.6,17.2,85.4,22.2l13.3-20.1L515,320
					c-10.8,8.8-24.1,20.8-34.3,30.6C489.1,348.7,497.6,347.9,506.1,347.9z"/>
			</g>
		</g>
		<g id="XMLID_527_" class="st5">
			<path id="XMLID_538_" class="st1" d="M594.2,559.9c-15.9,0-28.8-12.9-28.8-28.8s12.9-28.8,28.8-28.8s28.8,12.9,28.8,28.8
				S610.1,559.9,594.2,559.9z M594.2,508.2c-12.6,0-22.8,10.2-22.8,22.8s10.2,22.8,22.8,22.8s22.8-10.2,22.8-22.8
				S606.8,508.2,594.2,508.2z"/>
			<path id="XMLID_535_" class="st1" d="M453.6,479.8c-19.1,0-34.7-15.6-34.7-34.7s15.6-34.7,34.7-34.7s34.7,15.6,34.7,34.7
				S472.7,479.8,453.6,479.8z M453.6,416.5c-15.8,0-28.7,12.9-28.7,28.7s12.9,28.7,28.7,28.7c15.8,0,28.7-12.9,28.7-28.7
				S469.4,416.5,453.6,416.5z"/>
			<path id="XMLID_532_" class="st1" d="M426.2,611.8c-11.1,0-20.1-9-20.1-20.1c0-11.1,9-20.1,20.1-20.1c11.1,0,20.1,9,20.1,20.1
				C446.3,602.8,437.3,611.8,426.2,611.8z M426.2,577.7c-7.8,0-14.1,6.3-14.1,14.1c0,7.8,6.3,14.1,14.1,14.1s14.1-6.3,14.1-14.1
				C440.3,584,434,577.7,426.2,577.7z"/>
			<path id="XMLID_529_" class="st1" d="M605.2,602c-43.4,0-78.8-35.3-78.8-78.8c0-43.4,35.3-78.8,78.8-78.8s78.8,35.3,78.8,78.8
				C683.9,566.7,648.6,602,605.2,602z M605.2,450.4c-40.1,0-72.8,32.6-72.8,72.8c0,40.1,32.6,72.8,72.8,72.8
				c40.1,0,72.8-32.6,72.8-72.8C677.9,483.1,645.3,450.4,605.2,450.4z"/>
			<rect id="XMLID_528_" x="511.4" y="316.6" class="st1" width="6" height="101.3"/>
		</g>
	</g>
</g>
</svg>
