<?xml version="1.0" encoding="utf-8"?>
<!-- Generator: Adobe Illustrator 19.0.0, SVG Export Plug-In . SVG Version: 6.00 Build 0)  -->
<svg version="1.1" id="Calque_1" xmlns="http://www.w3.org/2000/svg" xmlns:xlink="http://www.w3.org/1999/xlink" x="0px" y="0px"
	 viewBox="0 0 1920 1018" style="enable-background:new 0 0 1920 1018;" xml:space="preserve">
<style type="text/css">
	.st0{fill:#17202A;}
	.st1{fill:none;stroke:#1C2833;stroke-width:6;stroke-miterlimit:10;}
	.st2{fill:#1C2833;}
</style>
<rect id="XMLID_50_" x="0" class="st0" width="1920" height="934.4"/>
<g id="XMLID_786_">
	<g id="XMLID_49_">
		<path id="XMLID_80_" class="st1" d="M1429.6,745.7c-9.3-10.5-17-21.7-23.3-33.8c-6.2-12-10.7-25.6-13.4-40.7s-3.2-29.3-1.5-42.7
			c1.7-13.4,5.1-26.7,10.1-39.8l19.9,4.2c-4.2,12.3-6.6,24.7-7.1,37.3c-0.6,12.6,0.2,24.8,2.3,36.7c2.1,11.9,5.6,23.6,10.5,35.3
			s11.4,22.5,19.6,32.6L1429.6,745.7z"/>
		<path id="XMLID_82_" class="st1" d="M1567.8,580c1,5.5,0.4,10.7-1.8,15.4c-2.4,5.1-6.1,8.7-11.1,10.7
			c12.8,7.4,20.5,18.4,23.1,32.9c2.3,12.9-0.3,24.7-7.7,35.5c-7.4,10.8-17.6,17.3-30.5,19.6c-12.9,2.3-24.7-0.3-35.4-7.9
			c-10.7-7.6-17.2-17.8-19.5-30.7c-2.5-14.3,0.7-27.1,9.8-38.4l-16.1,2.9l-2-11.4l72-12.8c3-0.5,5.2-2.3,6.7-5.2
			c1.4-2.7,1.8-5.6,1.2-8.7c-0.5-2.8-1.8-5.3-3.7-7.4c-2.2-2.3-4.7-3.3-7.4-3l-1.1-11.5c5.8-0.5,11,1.3,15.5,5.3
			C1564,569.3,1566.7,574.1,1567.8,580z M1565.2,639.9c-1.7-9.4-6.4-16.9-14.3-22.4c-7.9-5.5-16.5-7.4-25.9-5.7
			c-9.4,1.7-16.9,6.4-22.4,14.3c-5.5,7.9-7.4,16.5-5.7,25.9c1.7,9.4,6.4,16.9,14.3,22.4c7.9,5.5,16.5,7.4,25.9,5.7
			s16.9-6.4,22.4-14.3C1565,658,1566.9,649.4,1565.2,639.9z M1539,643.6c0.4,2.2,0,4.3-1.3,6.1c-1.3,1.8-3,3-5.3,3.4
			c-2.2,0.4-4.3,0-6.1-1.3c-1.8-1.3-3-3-3.4-5.3c-0.4-2.2,0-4.3,1.3-6.1c1.3-1.8,3-3,5.3-3.4c2.2-0.4,4.3,0,6.1,1.3
			C1537.4,639.6,1538.6,641.4,1539,643.6z"/>
		<path id="XMLID_86_" class="st1" d="M1600.1,709.3l-2.9-16.1l81.6-14.5l2.9,16.1L1600.1,709.3z"/>
		<path id="XMLID_88_" class="st1" d="M1761.2,545.5c1,5.5,0.4,10.7-1.8,15.4c-2.4,5.1-6.1,8.7-11.1,10.7
			c12.8,7.4,20.5,18.4,23.1,32.9c2.3,12.9-0.3,24.7-7.7,35.5c-7.4,10.8-17.6,17.3-30.5,19.6c-12.9,2.3-24.7-0.3-35.4-7.9
			c-10.7-7.6-17.2-17.8-19.5-30.7c-2.5-14.3,0.7-27.1,9.8-38.4l-16.1,2.9l-2-11.4l72-12.8c3-0.5,5.2-2.3,6.7-5.2
			c1.4-2.7,1.8-5.6,1.2-8.7c-0.5-2.8-1.8-5.3-3.7-7.4c-2.2-2.3-4.7-3.3-7.4-3l-1.1-11.5c5.8-0.5,11,1.3,15.5,5.3
			C1757.5,534.8,1760.2,539.7,1761.2,545.5z M1758.7,605.4c-1.7-9.4-6.4-16.9-14.3-22.4c-7.9-5.5-16.5-7.4-25.9-5.7
			c-9.4,1.7-16.9,6.4-22.4,14.3c-5.5,7.9-7.4,16.5-5.7,25.9c1.7,9.4,6.4,16.9,14.3,22.4c7.9,5.5,16.5,7.4,25.9,5.7
			c9.4-1.7,16.9-6.4,22.4-14.3C1758.5,623.5,1760.4,614.9,1758.7,605.4z M1732.4,609.1c0.4,2.2,0,4.3-1.3,6.1c-1.3,1.8-3,3-5.3,3.4
			c-2.2,0.4-4.3,0-6.1-1.3c-1.8-1.3-3-3-3.4-5.3c-0.4-2.2,0-4.3,1.3-6.1c1.3-1.8,3-3,5.3-3.4c2.2-0.4,4.3,0,6.1,1.3
			C1730.9,605.1,1732,606.9,1732.4,609.1z"/>
		<path id="XMLID_94_" class="st1" d="M1820,676.1l-19.9-4.2c4.2-12.3,6.6-24.7,7.1-37.3c0.6-12.6-0.2-24.8-2.3-36.7
			c-2.1-11.9-5.6-23.6-10.5-35.3c-4.9-11.6-11.4-22.5-19.6-32.6l17.2-10.8c9.3,10.6,17.1,21.9,23.3,33.9s10.6,25.5,13.3,40.6
			s3.2,29.3,1.5,42.8S1825.1,663,1820,676.1z"/>
	</g>
	<g id="XMLID_98_">
		<path id="XMLID_100_" class="st1" d="M1286.4,389.7l-9-12.1l15.5-14.7l-16-14.4l8.8-12.4l18.9,10.2l8.6-19.6l14.6,4.5l-4,21.2
			l21.4,2.1l0.2,15.2l-21.5,2.8l4.6,20.9l-14.3,4.9l-9.3-19.5L1286.4,389.7z"/>
	</g>
	<g id="XMLID_74_">
		<path id="XMLID_75_" class="st1" d="M945.9,688.6l-15.1,0.7l-3.6-21.1l-20.9,5.2l-5.4-14.2l19-10l-11.4-18.1l11.9-9.6l15.3,15.1
			l13.7-16.6l12.7,8.3l-9.6,19.4l20,7.8l-3.9,14.6l-21.3-3.1L945.9,688.6z"/>
	</g>
	<g id="XMLID_77_">
		<path id="XMLID_78_" class="st2" d="M423.1,733.7l-1.9-15l20.7-5.2l-6.8-20.4l13.7-6.5l11.4,18.2l17.1-12.8l10.5,11.1l-13.9,16.5
			l17.6,12.3l-7.3,13.3l-20.1-8.1l-6.2,20.5l-14.8-2.8l1.5-21.5L423.1,733.7z"/>
	</g>
	<g id="XMLID_102_">
		<path id="XMLID_104_" class="st2" d="M1121.6,234.2l-15,1.6l-4.8-20.8l-20.5,6.4l-6.2-13.9l18.4-11.1l-12.5-17.4l11.3-10.3
			l16.2,14.2l12.7-17.4l13.2,7.5l-8.5,19.9l20.4,6.6l-3,14.8l-21.5-1.9L1121.6,234.2z"/>
	</g>
	<g id="XMLID_54_">
		<path id="XMLID_55_" class="st2" d="M116.1,232.5l-15.1-0.1l-2.4-21.2l-21.1,4l-4.6-14.5l19.5-8.9l-10.4-18.7l12.4-8.9l14.5,16
			l14.6-15.8l12.2,9l-10.7,18.8l19.5,8.9l-4.7,14.3l-21.1-4.4L116.1,232.5z"/>
	</g>
	<g id="XMLID_48_">
		<path id="XMLID_106_" class="st2" d="M1699.8,237.8l-9.4-11.8l14.9-15.3l-16.5-13.8l8.3-12.7l19.2,9.5l7.9-19.9l14.8,4l-3.2,21.3
			l21.5,1.3l0.8,15.2l-21.4,3.6l5.4,20.8l-14.1,5.4l-10-19.1L1699.8,237.8z"/>
	</g>
	<g id="XMLID_51_">
		<path id="XMLID_52_" class="st1" d="M442.1,221.7L434,209l16.5-13.5l-14.9-15.5l9.6-11.7l18.1,11.6l10-18.9l14.3,5.6l-5.5,20.8
			l21.2,3.6l-0.9,15.2l-21.6,1.3l3.1,21.2l-14.6,3.8l-7.8-20.1L442.1,221.7z"/>
	</g>
	<g id="XMLID_47_">
		<path id="XMLID_57_" class="st1" d="M234.5,444.8c-8.2-22-30.1-54.7-52.6-78l11.7-5.9c23.2,23.2,45.1,54.3,54,76.3L234.5,444.8z"
			/>
		<path id="XMLID_60_" class="st1" d="M316.5,524.9c-4.7-13.2-7.7-26.5-8.9-40c-1.3-13.5-0.3-27.7,2.9-42.7s8-28.4,14.6-40.2
			c6.6-11.8,14.7-22.8,24.3-33.1l16.8,11.4c-8.5,9.8-15.3,20.5-20.6,32c-5.3,11.5-9.1,23.1-11.6,34.9c-2.5,11.8-3.6,24-3.4,36.6
			c0.2,12.6,2.2,25.1,6,37.5L316.5,524.9z"/>
		<path id="XMLID_63_" class="st1" d="M367.7,455.6l40.9-62.5l23.2,4.9l12.2,73.7l-23.8-5l-2.5-20.1l-2.6-24.7l-0.7-0.1L402,443.3
			l-10.4,17.4L367.7,455.6z"/>
		<path id="XMLID_65_" class="st1" d="M607.2,433.3l-23.7,112.4l-12.3-2.6l2.3-10.7l-93.8-19.8l-2.3,11.1l-11.9-2.5l23.7-112.8
			L607.2,433.3z M576,521l16.6-78.9l-93.8-19.8l-16.6,78.9L576,521z"/>
		<path id="XMLID_68_" class="st1" d="M623.2,509.4l40.9-62.5l23.2,4.9l12.2,73.7l-23.8-5l-2.5-20.1l-2.6-24.7l-0.7-0.1l-12.4,21.6
			l-10.4,17.4L623.2,509.4z"/>
		<path id="XMLID_70_" class="st1" d="M718.5,609.5l-16.8-11.4c8.5-9.8,15.3-20.5,20.6-32c5.3-11.5,9.1-23.1,11.6-34.9
			c2.5-11.8,3.6-24,3.4-36.6c-0.2-12.6-2.2-25.1-6-37.5l20-3.6c4.7,13.3,7.6,26.7,8.9,40.1c1.3,13.4,0.3,27.6-2.8,42.6
			s-8,28.4-14.6,40.2C736.2,588.3,728.1,599.4,718.5,609.5z"/>
		<path id="XMLID_72_" class="st1" d="M862.3,470.5c-0.8,1.4-2.5,2-4.4,1.6C834,530,804.2,573.2,774.1,597.4c-1.7-2.7-4.8-6.5-7.3-9
			c29.6-21.7,59.6-65,83.2-124.1L862.3,470.5z"/>
	</g>
</g>
<g id="XMLID_143_">
	<path id="XMLID_144_" class="st2" d="M1857.9,780.2c-256.4,77.3-344.4-116-676-107.6C865.8,680.7,807,860.1,516.4,821.9
		c-169.1-22.2-221-92.4-395.2-166.6C84.6,639.7,44.3,624.7,0,611.1V1018h1920V756.4C1901.8,765.1,1881.5,773.1,1857.9,780.2z"/>
</g>
</svg>
