<?xml version="1.0" encoding="utf-8"?>
<!-- Generator: Adobe Illustrator 19.0.0, SVG Export Plug-In . SVG Version: 6.00 Build 0)  -->
<svg version="1.1" id="Calque_1" xmlns="http://www.w3.org/2000/svg" xmlns:xlink="http://www.w3.org/1999/xlink" x="0px" y="0px"
	 viewBox="-204 200.1 550.4 154.6" style="enable-background:new -204 200.1 550.4 154.6;" xml:space="preserve">
<style type="text/css">
	.st0{fill:#555859;}
	.st1{fill:#FFFFFF;}
	.st2{fill:none;}
	.st3{display:none;}
	.st4{display:inline;}
	.st5{display:inline;fill:#FFFFFF;}
</style>
<g id="XMLID_14_">
	<g id="XMLID_209_">
		<g id="XMLID_248_">
			<path id="XMLID_257_" class="st0" d="M1.8,323.9c-0.1,1.9-0.3,3.5-0.4,4.9C1.7,327.2,1.8,325.6,1.8,323.9z"/>
			<g id="XMLID_245_">
				<path id="XMLID_254_" class="st1" d="M-21.1,316.5v-28.8v-4.4v-16.5v-4.3V251v-17.6c0-1.4,0-2.6,0.1-3.8c0,0,0,0.1,0-0.1
					c0-7.5,2.6-15.7,7-21.1c-3.1,0.6-5.9,1.6-8.5,2.8c-3.3,1.6-6.8,4.1-10.5,7.6c-3.1-2.7-5.6-4.7-7.5-5.8c-1.1-0.6-2.5-1.3-4-1.8
					c3.2,4.9,5,12.2,5,18.5c0,0.1,0,0.2,0,0.1c0.1,1.5,0.1,3.2,0.1,5v49.8v31.3l-7,7l15.9,12.8l15.7-12.8L-21.1,316.5z"/>
				<path id="XMLID_256_" class="st1" d="M19.9,258.3c-0.4-2.8-1.1-5.1-1.9-6.8c-1.8-3.5-5.6-7.2-11.5-11l-14,11.1
					c2.7,1.3,5,3.4,6.6,6c1.9,3,3.1,6.5,3.1,10.2c0,0.6,0,1.2,0,1.8V307c0,7-0.1,12.6-0.4,16.9c0,1.7-0.2,3.3-0.4,4.9
					c-0.2,1.5-0.6,3-1,4.5c-2.5,8.8-8,16.3-15.4,21.4c7.2-3.4,13.5-7.1,19-11.2c6.9-5.1,11.6-10.6,14.2-16.4c1.6-3.6,2.4-9.2,2.4-17
					v-40.4C20.6,265.2,20.4,261.4,19.9,258.3z"/>
			</g>
		</g>
		<line id="XMLID_246_" class="st2" x1="88.1" y1="301.2" x2="88.1" y2="314"/>
		<g id="XMLID_250_">
			<path id="XMLID_251_" class="st1" d="M64.3,312.1c-0.3-1.4-0.4-3-0.4-5v-47.4l6.7-5.9l-16.2-13.2l-15,12.3
				c3.8,1.9,6.4,5.8,6.4,10.3c0,0.1,0,0.2,0,0.2c0.1,0.8,0.1,1.7,0.1,2.7v44.1c0,5.6,0.9,10.1,2.7,13.5c1.8,3.4,5.5,7.4,11.3,11.9
				c5.6-4.9,11.1-9.4,16.6-13.5c-0.1,0-0.1,0-0.2,0C70.3,322.1,65.3,317.8,64.3,312.1z"/>
			<path id="XMLID_253_" class="st1" d="M107.8,317.9c-1.2-2.4-1.8-5.9-1.8-10.7v-46.8l7.2-6.6l-15.9-13.2l-15.7,13.2l6.3,6.6v45.1
				v0.5v1.2v5.7v0.3v0.9c0.1,5.8,0.9,10,2.4,12.6c1.5,2.6,4.5,5.6,9.3,9l14.9-11.4C111.6,323.1,109.1,320.8,107.8,317.9z"/>
		</g>
		<g id="XMLID_258_">
			<path id="XMLID_259_" class="st1" d="M170.7,254.2v-10h-17.9l0.9-24.6H151l-24.9,30.7v3.9h8.4v51.2c0,1,0,2-0.1,3
				c0,0.1,0-0.1,0,0c0,5.2-2.2,10.2-5.6,13.6c8.2,2.5,15.7,7.1,22.2,13.8l19-15.1c-1.3,0.7-2.8,1.2-4.4,1.2c-2.1,0-3.9-0.7-5.5-1.9
				h0l-7.4-5.5v-60.1H170.7z"/>
		</g>
		<g id="XMLID_4_">
			<path id="XMLID_214_" class="st1" d="M222,254.2v-10H204l0.9-24.6h-2.6l-24.9,30.7v3.9h8.4v51.2c0,1,0,2-0.1,3c0,0.1,0-0.1,0,0
				c0,5.2-2.2,10.2-5.6,13.6c8.2,2.5,15.7,7.1,22.2,13.8l19-15.1c-1.3,0.7-2.8,1.2-4.4,1.2c-2.1,0-3.9-0.7-5.5-1.9h0l-7.4-5.5v-60.1
				H222z"/>
		</g>
		<g id="XMLID_217_">
			<path id="XMLID_215_" class="st1" d="M270.4,322.8c-1.4,0-2.8-0.4-3.9-1.2l-9.6-7.2v-79.3c0-0.9,0-1.8,0-2.6c0,0,0,0,0,0
				c0-0.4,0-0.8,0.1-1.2c0,0,0,0.1,0-0.1c0-7.5,2.6-15.7,7-21.1c-3.1,0.6-5.9,1.6-8.5,2.8c-3.2,1.5-6.6,4-10.1,7.2
				c-0.1,0.1-0.2,0.1-0.2,0.2c-0.1,0.1-0.1,0.1-0.2,0.2c-3.1-2.7-5.6-4.7-7.5-5.8c-1.1-0.6-2.5-1.3-4-1.8c2.1,3.2,3.5,7.3,4.3,11.6
				c0.4,2.3,0.7,4.7,0.7,6.9c0,0.1,0,0.2,0,0.1c0.1,1.5,0.1,3.2,0.1,5v49.8v14.6c0,3.1-0.1,5.4-0.1,7.1c0,0.2,0-0.2,0,0
				c0,5.4-2.2,10.7-5.9,14.1c0.4,0.1,0.7,0.2,1.1,0.3c3.8,1.2,7,2.4,9.4,3.8c2.2,1.3,5.3,3.6,9.4,7c0.9,0.7,1.8,1.5,2.7,2.3
				l17.6-13.3C272.1,322.6,271.3,322.8,270.4,322.8z"/>
		</g>
		<g id="XMLID_211_">
			<path id="XMLID_260_" class="st2" d="M306.4,291.9l1.7-1.2c-0.6-0.1-1.2-0.3-1.7-0.5v0.3V291.9z"/>
			<path id="XMLID_330_" class="st0" d="M321,287.7l-2.2,1.5C319.5,288.8,320.3,288.3,321,287.7z"/>
			<g id="XMLID_379_">
				<path id="XMLID_381_" class="st1" d="M313.9,244.3c0.4-0.2,0.7-0.4,1.1-0.6C314.6,243.9,314.2,244.1,313.9,244.3z"/>
				<path id="XMLID_382_" class="st1" d="M306.4,248c-0.3,0.2-0.6,0.3-0.9,0.4c-0.3,0.2-0.6,0.3-0.9,0.5c0.9-0.4,1.9-0.9,3-1.5
					C307.2,247.6,306.8,247.8,306.4,248z"/>
				<path id="XMLID_383_" class="st1" d="M303.4,249.5c0.3-0.1,0.5-0.3,0.8-0.4C303.9,249.3,303.6,249.4,303.4,249.5z"/>
				<path id="XMLID_385_" class="st1" d="M317.3,242.5c0.3-0.1,0.5-0.3,0.8-0.4C317.8,242.3,317.6,242.4,317.3,242.5z"/>
				<path id="XMLID_386_" class="st1" d="M308.1,247.2c0.6-0.3,1.3-0.7,2-1C309.4,246.6,308.7,246.9,308.1,247.2z"/>
				<path id="XMLID_387_" class="st1" d="M311.2,245.7c0.4-0.2,0.7-0.4,1.1-0.6C311.9,245.3,311.5,245.5,311.2,245.7z"/>
				<path id="XMLID_389_" class="st1" d="M288.5,309.5C288.5,309.5,288.5,309.4,288.5,309.5C288.5,309.4,288.5,309.4,288.5,309.5z"
					/>
				<path id="XMLID_390_" class="st1" d="M288.5,309.4C288.5,309.4,288.5,309.5,288.5,309.4C288.5,309.7,288.5,309.5,288.5,309.4z"
					/>
				<path id="XMLID_391_" class="st1" d="M302.4,250c0.3-0.1,0.6-0.3,1-0.5C303,249.7,302.7,249.9,302.4,250z"/>
				<path id="XMLID_392_" class="st1" d="M304.2,249.1c0.1-0.1,0.3-0.1,0.4-0.2C304.5,249,304.3,249.1,304.2,249.1z"/>
				<path id="XMLID_393_" class="st1" d="M307.7,247.4c0.1-0.1,0.3-0.1,0.4-0.2C307.9,247.3,307.8,247.4,307.7,247.4z"/>
				<path id="XMLID_394_" class="st1" d="M318.1,242.1c1-0.5,2-1,3.1-1.6C320.2,241.1,319.1,241.6,318.1,242.1z"/>
				<path id="XMLID_396_" class="st1" d="M314.9,243.7c0.8-0.4,1.5-0.8,2.4-1.2C316.5,243,315.7,243.4,314.9,243.7z"/>
				<path id="XMLID_397_" class="st1" d="M312.3,245.1c0.5-0.3,1-0.5,1.6-0.8C313.3,244.6,312.8,244.8,312.3,245.1z"/>
				<path id="XMLID_398_" class="st1" d="M310.1,246.2c0.3-0.2,0.7-0.3,1.1-0.5C310.8,245.9,310.5,246,310.1,246.2z"/>
				<path id="XMLID_377_" class="st1" d="M329.2,321c-0.3,0-0.6,0-1,0c-2.8,0-5.6-0.5-8-1.4l-13.7-5.4v-8.6v-7.6l30.4-21.3l9.6-6.7
					l-25.2-29.3c-1.1,0.6-2.1,1.1-3.1,1.6c-0.3,0.1-0.5,0.3-0.8,0.4c-0.8,0.4-1.6,0.8-2.4,1.2c-0.4,0.2-0.7,0.4-1.1,0.6
					c-0.5,0.3-1.1,0.5-1.6,0.8c-0.4,0.2-0.8,0.4-1.1,0.6c-0.4,0.2-0.7,0.4-1.1,0.5c-0.7,0.4-1.4,0.7-2,1c-0.1,0.1-0.3,0.1-0.4,0.2
					c-1.2,0.6-2.2,1.1-3,1.5c-0.2,0.1-0.3,0.1-0.4,0.2c-0.3,0.1-0.6,0.3-0.8,0.4c-0.4,0.2-0.7,0.3-1,0.5c-3.7,1.7-8.3,3.5-13.9,5.5
					v51c0,1,0,2,0,2.9c0,0,0,0.2,0,0.1c0,5.4-1.9,11.2-5,15.1v0c7,1.5,12.4,2.9,16.3,4.3c3.8,1.4,8.7,3.6,14.6,6.8l24.9-17.4
					c-2.8,1.5-5.9,2.4-9.2,2.7C329.7,320.9,329.4,320.9,329.2,321z M306.4,290.5v-0.3v-27v-10v-1.8v-2v0l1.2,1.4l21.8,24.2l0.4,0.4
					l-4,2.8l-19.5,13.7V290.5z"/>
			</g>
		</g>
	</g>
	<g id="XMLID_2_">
		<g id="XMLID_15_" class="st3">
			<g id="XMLID_144_" class="st4">
				<path id="XMLID_145_" class="st1" d="M-149.5,202.3l40.3,13.5l3-5.3c1.1-1.9,1.8-3.1,2.3-3.5c0.5-0.4,1-0.7,1.6-0.7
					c0.6,0,1.1,0.2,1.5,0.6c0.4,0.4,0.6,0.9,0.6,1.4c0,0.8-0.7,2.5-2.2,5l-19.5,33l15.5-1c4.6-0.2,10,0.5,16.2,2
					c6.2,1.5,11.5,3.8,15.9,6.9c4.4,3.1,7.9,6.8,10.4,11.1c2.5,4.3,3.8,8.9,3.8,14.1c0,9.4-3.9,18.6-11.8,27.7
					c-7.9,9.1-21.9,18.6-42.1,28.7c-7.1-2.6-15.3-5.4-24.7-8.3c-16.8,7.7-30.5,11.5-41.3,11.5c-7.7,0-13.6-1.7-17.7-5
					c-4.1-3.4-6.2-7.2-6.2-11.7c0-4.7,2.5-9,7.5-12.9c5-3.9,12.4-5.8,22.2-5.8c3.9,0,8.7,0.5,14.4,1.4l7.3-12.8l-13.1,1
					c-3.1,0.1-7.3-0.4-12.5-1.3c-5.2-0.9-9.5-2.4-12.9-4.5c-3.4-2.1-5.9-4.6-7.5-7.7c-1.7-3-2.5-6.2-2.5-9.6c0-5.3,1.9-10,5.6-14.1
					c2.4-2.6,6.3-5,11.8-7.1l-0.1-1.1c0-5.5,2.5-11.9,7.4-19.1C-171.5,221.7-162.5,212.9-149.5,202.3z M-145,325.5
					c-14.8-5-27-7.4-36.4-7.4c-4.9,0-8.8,1.1-11.6,3.2c-2,1.4-2.9,3.2-2.9,5.3c0,2.2,1,4,2.9,5.3c3.1,2.1,7.6,3.2,13.5,3.2
					C-170.5,335-159,331.8-145,325.5z M-136,263c-7.7,1.1-15.3,1.7-22.5,1.7c-8.1,0-13.8-1-17.2-2.9c-3.4-1.9-5.9-4.9-7.6-8.9
					c-4.3,2.7-6.4,6.1-6.4,10.2c0,3.7,1.7,6.7,5,9.1c4.4,3.1,11.9,4.6,22.6,4.6c5,0,11.4-0.5,19.1-1.4L-136,263z M-117.3,230.1
					c-9.3-4.6-16.6-7.7-21.8-9.3c-5.2-1.6-9.8-2.4-13.8-2.4c-5.6,0-10.1,1.6-13.6,4.7c-3.5,3.2-5.3,6.8-5.3,11.1
					c0,4.2,1.5,7.6,4.5,10.3c3,2.7,7.5,4,13.6,4c4,0,13-0.6,27-1.8L-117.3,230.1z M-155.8,305.8c5.6,1.2,10.2,2.4,13.7,3.4
					c3.5,1,9.9,3.1,18.9,6.3c14.4-6.6,21.6-12.9,21.6-19.1c0-1.9-0.8-3.6-2.5-5.2c-1.7-1.6-3.8-2.3-6.4-2.3c-3.2,0-7.1,0.3-11.8,0.8
					c-13,1.4-21.5,2.1-25.6,2.1L-155.8,305.8z M-138.3,275.1c14.2-1.4,24.1-2.1,29.6-2.1c7.6,0,13.3,1.7,17.3,5.1
					c4,3.4,6,7.5,6,12.3c0,4.2-2,8.2-5.8,12.2c-3.9,3.9-12.3,8.8-25.1,14.7l18.2,4.8c7.8-4.8,13.8-10,18.1-15.6
					c4.2-5.6,6.4-11.8,6.4-18.5c0-4.4-1.3-8.7-4-13c-2.7-4.3-6.7-7.7-12.2-10.2c-5.5-2.5-11.8-3.8-19-3.8c-5.8,0-13.2,0.5-22.2,1.6
					L-138.3,275.1z"/>
			</g>
			<circle id="XMLID_143_" class="st5" cx="-110.5" cy="301.7" r="12.8"/>
			<circle id="XMLID_19_" class="st5" cx="-104.9" cy="297.5" r="36"/>
			<circle id="XMLID_18_" class="st5" cx="-176.5" cy="260.3" r="14.4"/>
			<circle id="XMLID_17_" class="st5" cx="-156.6" cy="230.6" r="17.7"/>
			<circle id="XMLID_16_" class="st5" cx="-187.8" cy="329.1" r="9.3"/>
		</g>
		<g id="XMLID_10_">
			<path id="XMLID_13_" class="st1" d="M-155.8,305.8c5.6,1.2,10.2,2.4,13.7,3.4c3.5,1,9.9,3.1,18.9,6.3"/>
			<g id="XMLID_11_">
				<path id="XMLID_12_" class="st1" d="M-113.2,318.6c-5.4-1.6-10-3.1-10-3.1c-9.1-3.1-15.4-5.2-18.9-6.3c-3.5-1-8.1-2.2-13.7-3.4
					l-4.1-0.8c-5.7-1-10.5-1.4-14.4-1.4c-9.8,0-17.2,2-22.2,5.8c-5,3.9-7.5,8.2-7.5,12.9c0,4.4,2.1,8.3,6.2,11.7
					c1.5,1.2,3.2,2.2,5.1,2.9c-2.6-1.6-4.4-4.6-4.4-7.9c0-2.4,0.9-4.6,2.4-6.2c0.4-0.6,1-1.1,1.7-1.6c2.9-2.1,6.7-3.2,11.6-3.2
					c9.5,0,21.6,2.5,36.4,7.4l6.2,2.1c9.4,2.9,17.6,5.7,24.7,8.3c11.3-5.7,20.7-11.2,28.2-16.5c-4,1-8.1,1.6-12.4,1.6
					C-103.5,320.9-108.5,320.1-113.2,318.6z"/>
			</g>
		</g>
		<path id="XMLID_9_" class="st1" d="M-60.1,279.4c0-5.1-1.3-9.8-3.8-14.1c-2.5-4.3-6-7.9-10.4-11.1c-4.4-3.1-9.7-5.4-15.9-6.9
			c-6.2-1.5-11.6-2.1-16.2-2l-15.5,1l-4.8,0.3l-29.8,1.5c-1,0-1.9-0.1-2.9-0.2c-8.4-1.4-14.8-8.7-14.8-17.5c0-2,0.3-4,1-5.8
			c-1.2,1.4-2.2,2.8-3.1,4.1c-4.9,7.2-7.4,13.5-7.4,19.1c0,0-0.2,2.6,0.4,4.9c1.7,4,4.2,7,7.6,8.9c3.4,1.9,9.1,2.9,17.2,2.9
			c7.3,0,14.8-0.6,22.5-1.7l4.8-0.4l26.3-1.1c4.3,0,8.5,0.8,12.3,2.2c13.8,5,23.7,18.3,23.7,33.8c0,2.3-0.2,4.5-0.6,6.6
			C-63.3,296-60.1,287.8-60.1,279.4z"/>
		<path id="XMLID_8_" class="st1" d="M-91.4,278.1c-4-3.4-9.8-5.1-17.3-5.1c-5.5,0-15.4,0.7-29.6,2.1l-4.8,0.3
			c-7.7,0.9-14.1,1.4-19.1,1.4c-10.7,0-18.2-1.5-22.6-4.6c-0.7-0.5-1.3-1-1.9-1.6c-2.7-2.6-4.3-6.3-4.3-10.3c0-3.8,1.5-7.3,3.9-9.9
			c-3.8,1.7-6.6,3.6-8.5,5.7c-3.8,4.1-5.6,8.8-5.6,14.1c0,3.3,0.8,6.5,2.5,9.6c1.7,3,4.2,5.6,7.5,7.7c3.4,2.1,7.7,3.6,12.9,4.5
			c5.2,0.9,9.4,1.4,12.5,1.3l13.1-1l4.8-0.4c3.7,0,11.2-0.6,22.4-1.7l14.9-1.2c0.1,0,0.3,0,0.4,0c0,0,0.1,0,0.1,0
			c6.8,0.3,12.3,5.9,12.3,12.8c0,2.6-0.8,5.1-2.2,7.1c3.9-2.3,6.8-4.4,8.6-6.3c3.9-3.9,5.8-8,5.8-12.2
			C-85.4,285.7-87.4,281.6-91.4,278.1z"/>
		<g id="XMLID_5_">
			<polygon id="XMLID_7_" class="st1" points="-107,213.6 -147.3,200.1 -107,213.6 			"/>
			<path id="XMLID_6_" class="st1" d="M-168.1,219c4.7-4.7,13.8-13.2,20.9-18.9l40.3,13.5l0,0l4.4,1.5l-8,12
				C-110.6,227.1-142.3,209.6-168.1,219z"/>
		</g>
	</g>
</g>
</svg>
