<?xml version="1.0" encoding="utf-8"?>
<!-- Generator: Adobe Illustrator 19.0.0, SVG Export Plug-In . SVG Version: 6.00 Build 0)  -->
<svg version="1.1" id="Calque_1" xmlns="http://www.w3.org/2000/svg" xmlns:xlink="http://www.w3.org/1999/xlink" x="0px" y="0px"
	 viewBox="-281 -41 396.3 642" style="enable-background:new -281 -41 396.3 642;" xml:space="preserve">
<style type="text/css">
	.st0{fill:#FFFFFF;}
	.st1{opacity:0.25;}
	.st2{opacity:0.7;}
	.st3{fill:#E71F5F;}
	.st4{fill:none;stroke:#E71F5F;stroke-width:2;stroke-miterlimit:10;}
	.st5{fill:#1C2833;}
	.st6{fill:#E71F5F;stroke:#FFFFFF;stroke-width:5;stroke-miterlimit:10;}
	.st7{fill:#E6EAED;}
	.st8{opacity:0.2;}
	.st9{fill:#EEEEEC;}
	.st10{fill:none;stroke:#C3C5C5;stroke-width:2;stroke-miterlimit:10;}
	.st11{fill:#C3C5C5;}
	.st12{fill:none;stroke:#FFFFFF;stroke-width:2;stroke-miterlimit:10;}
</style>
<g id="XMLID_1_">
	<g id="XMLID_2_">
		<g id="XMLID_5_">
			<rect id="XMLID_57_" x="-281" y="-41" class="st0" width="396.3" height="642"/>
			<path id="XMLID_56_" d="M-122.4-14.2h-57.8c-1,0-1.9-0.8-1.9-1.9v-1.6c0-1,0.8-1.9,1.9-1.9h57.8c1,0,1.9,0.8,1.9,1.9v1.6
				C-120.5-15-121.4-14.2-122.4-14.2z"/>
			<path id="XMLID_55_" d="M-177.9,196.7h-56.7c-1.3,0-2.4-1.1-2.4-2.4v-0.5c0-1.3,1.1-2.4,2.4-2.4h56.7c1.3,0,2.4,1.1,2.4,2.4v0.5
				C-175.5,195.6-176.5,196.7-177.9,196.7z"/>
			<path id="XMLID_54_" class="st1" d="M-153.7,214.5h-80.9c-1.3,0-2.4-1.1-2.4-2.4v-0.5c0-1.3,1.1-2.4,2.4-2.4h80.9
				c1.3,0,2.4,1.1,2.4,2.4v0.5C-151.3,213.4-152.4,214.5-153.7,214.5z"/>
			<path id="XMLID_44_" class="st2" d="M57.8,242.3h-292.4c-1.3,0-2.4-1.1-2.4-2.4v-0.5c0-1.3,1.1-2.4,2.4-2.4H57.8
				c1.3,0,2.4,1.1,2.4,2.4v0.5C60.2,241.2,59.1,242.3,57.8,242.3z"/>
			<path id="XMLID_43_" class="st2" d="M-16.4,260.2h-218.3c-1.3,0-2.4-1.1-2.4-2.4v-0.5c0-1.3,1.1-2.4,2.4-2.4h218.3
				c1.3,0,2.4,1.1,2.4,2.4v0.5C-14,259.1-15,260.2-16.4,260.2z"/>
			<path id="XMLID_42_" class="st1" d="M-170.6,287.7h-43.2c-1.3,0-2.4-1.1-2.4-2.4v-0.5c0-1.3,1.1-2.4,2.4-2.4h43.2
				c1.3,0,2.4,1.1,2.4,2.4v0.5C-168.2,286.6-169.3,287.7-170.6,287.7z"/>
			<path id="XMLID_41_" d="M-221.6,316.4h-11.7c-1.3,0-2.4-1.1-2.4-2.4v-0.5c0-1.3,1.1-2.4,2.4-2.4h11.7c1.3,0,2.4,1.1,2.4,2.4v0.5
				C-219.2,315.3-220.2,316.4-221.6,316.4z"/>
			<path id="XMLID_40_" class="st1" d="M-130.9,316.4h-82.6c-1.3,0-2.4-1.1-2.4-2.4v-0.5c0-1.3,1.1-2.4,2.4-2.4h82.6
				c1.3,0,2.4,1.1,2.4,2.4v0.5C-128.5,315.3-129.6,316.4-130.9,316.4z"/>
			<path id="XMLID_39_" d="M-143.1,431.6h-43c-1.5,0-2.7-1.2-2.7-2.7v0c0-1.5,1.2-2.7,2.7-2.7h43c1.5,0,2.7,1.2,2.7,2.7v0
				C-140.4,430.4-141.6,431.6-143.1,431.6z"/>
			<path id="XMLID_38_" class="st3" d="M-151.9,364.1h-43.5c-1.3,0-2.4-1.1-2.4-2.4v-0.5c0-1.3,1.1-2.4,2.4-2.4h43.5
				c1.3,0,2.4,1.1,2.4,2.4v0.5C-149.5,363-150.6,364.1-151.9,364.1z"/>
			<path id="XMLID_37_" class="st1" d="M78.3,364.1H34.8c-1.3,0-2.4-1.1-2.4-2.4v-0.5c0-1.3,1.1-2.4,2.4-2.4h43.5
				c1.3,0,2.4,1.1,2.4,2.4v0.5C80.7,363,79.6,364.1,78.3,364.1z"/>
			<path id="XMLID_36_" class="st1" d="M6.4,364.1H-121c-1.3,0-2.4-1.1-2.4-2.4v-0.5c0-1.3,1.1-2.4,2.4-2.4H6.4
				c1.3,0,2.4,1.1,2.4,2.4v0.5C8.8,363,7.7,364.1,6.4,364.1z"/>
			<path id="XMLID_35_" class="st2" d="M-3.4,452.2H-186c-1.5,0-2.7-1.2-2.7-2.7l0,0c0-1.5,1.2-2.7,2.7-2.7H-3.4
				c1.5,0,2.7,1.2,2.7,2.7l0,0C-0.7,451-1.9,452.2-3.4,452.2z"/>
			<path id="XMLID_34_" class="st2" d="M91.9,468.1h-278c-1.5,0-2.7-1.2-2.7-2.7l0,0c0-1.5,1.2-2.7,2.7-2.7h278
				c1.5,0,2.7,1.2,2.7,2.7l0,0C94.6,466.9,93.4,468.1,91.9,468.1z"/>
			<path id="XMLID_33_" class="st2" d="M80.7,483.9H-186c-1.5,0-2.7-1.2-2.7-2.7l0,0c0-1.5,1.2-2.7,2.7-2.7H80.7
				c1.5,0,2.7,1.2,2.7,2.7l0,0C83.4,482.7,82.2,483.9,80.7,483.9z"/>
			<path id="XMLID_32_" class="st2" d="M85.3,499.8H-186c-1.5,0-2.7-1.2-2.7-2.7l0,0c0-1.5,1.2-2.7,2.7-2.7H85.3
				c1.5,0,2.7,1.2,2.7,2.7l0,0C88,498.6,86.8,499.8,85.3,499.8z"/>
			<path id="XMLID_31_" class="st2" d="M72.7,515.7H-186c-1.5,0-2.7-1.2-2.7-2.7l0,0c0-1.5,1.2-2.7,2.7-2.7H72.7
				c1.5,0,2.7,1.2,2.7,2.7l0,0C75.4,514.5,74.2,515.7,72.7,515.7z"/>
			<path id="XMLID_30_" class="st2" d="M72.7,531.6H-186c-1.5,0-2.7-1.2-2.7-2.7l0,0c0-1.5,1.2-2.7,2.7-2.7H72.7
				c1.5,0,2.7,1.2,2.7,2.7l0,0C75.4,530.4,74.2,531.6,72.7,531.6z"/>
			<path id="XMLID_28_" class="st2" d="M37.7,547.5H-186c-1.5,0-2.7-1.2-2.7-2.7l0,0c0-1.5,1.2-2.7,2.7-2.7H37.7
				c1.5,0,2.7,1.2,2.7,2.7l0,0C40.3,546.3,39.1,547.5,37.7,547.5z"/>
			<path id="XMLID_27_" class="st1" d="M-51.7,431.6h-81c-1.5,0-2.7-1.2-2.7-2.7v0c0-1.5,1.2-2.7,2.7-2.7h81c1.5,0,2.7,1.2,2.7,2.7
				v0C-49,430.4-50.2,431.6-51.7,431.6z"/>
			<path id="XMLID_26_" class="st1" d="M7.2,431.6h-43.6c-1.5,0-2.7-1.2-2.7-2.7v0c0-1.5,1.2-2.7,2.7-2.7H7.2c1.5,0,2.7,1.2,2.7,2.7
				v0C9.9,430.4,8.7,431.6,7.2,431.6z"/>
			<path id="XMLID_25_" d="M-97.1,316.4h-11.7c-1.3,0-2.4-1.1-2.4-2.4v-0.5c0-1.3,1.1-2.4,2.4-2.4h11.7c1.3,0,2.4,1.1,2.4,2.4v0.5
				C-94.7,315.3-95.8,316.4-97.1,316.4z"/>
			<path id="XMLID_24_" class="st1" d="M-41.5,316.4H-89c-1.3,0-2.4-1.1-2.4-2.4v-0.5c0-1.3,1.1-2.4,2.4-2.4h47.5
				c1.3,0,2.4,1.1,2.4,2.4v0.5C-39.1,315.3-40.2,316.4-41.5,316.4z"/>
			<path id="XMLID_23_" class="st1" d="M-58.7,287.7H-138c-1.3,0-2.4-1.1-2.4-2.4v-0.5c0-1.3,1.1-2.4,2.4-2.4h79.3
				c1.3,0,2.4,1.1,2.4,2.4v0.5C-56.3,286.6-57.4,287.7-58.7,287.7z"/>
			<path id="XMLID_22_" class="st3" d="M78,156.2h-89.3c-1.5,0-2.7-1.2-2.7-2.7v0c0-1.5,1.2-2.7,2.7-2.7H78c1.5,0,2.7,1.2,2.7,2.7v0
				C80.7,155,79.5,156.2,78,156.2z"/>
			<path id="XMLID_21_" class="st4" d="M78.2,169.9h-89.7c-9,0-16.4-7.4-16.4-16.4v0c0-9,7.4-16.4,16.4-16.4h89.7
				c9,0,16.4,7.4,16.4,16.4v0C94.6,162.5,87.2,169.9,78.2,169.9z"/>
			<circle id="XMLID_20_" class="st3" cx="-216.8" cy="442.5" r="20.2"/>
			<circle id="XMLID_19_" class="st1" cx="-227.4" cy="285" r="8.3"/>
			<circle id="XMLID_18_" class="st3" cx="-212.9" cy="-16.9" r="8.3"/>
			<circle id="XMLID_17_" class="st1" cx="-153.3" cy="285" r="8.3"/>
			<rect id="XMLID_15_" x="-281" y="6.6" class="st5" width="396.3" height="115.8"/>
			<circle id="XMLID_12_" class="st6" cx="-199.6" cy="135.4" r="37.4"/>
			<rect id="XMLID_11_" x="-281" y="330.6" class="st7" width="396.3" height="10.6"/>
			<rect id="XMLID_10_" x="-281" y="383.5" class="st7" width="396.3" height="2.6"/>
			<rect id="XMLID_8_" x="-210.7" y="383.5" class="st3" width="74.1" height="2.6"/>
			<path id="XMLID_7_" class="st7" d="M82.1,575.6h-258.3c-6.9,0-12.5,5.6-12.5,12.5V601H94.6v-12.9C94.6,581.2,89,575.6,82.1,575.6
				z"/>
			<g id="XMLID_29_" class="st8">
				
					<image style="overflow:visible;" width="130" height="129" xlink:href="FB86BE20.png"  transform="matrix(1 0 0 1 -5.2265 491.5204)">
				</image>
			</g>
			<circle id="XMLID_6_" class="st3" cx="59.9" cy="555.7" r="28.1"/>
		</g>
		<rect id="XMLID_4_" x="-281" y="-41" class="st9" width="30.2" height="642"/>
		<circle id="XMLID_3_" class="st0" cx="-265.9" cy="24" r="11.2"/>
		<circle id="XMLID_151_" class="st0" cx="-265.9" cy="53" r="11.2"/>
		<circle id="XMLID_150_" class="st0" cx="-265.9" cy="82.1" r="11.2"/>
		<circle id="XMLID_149_" class="st0" cx="-265.9" cy="111.2" r="11.2"/>
		<circle id="XMLID_123_" class="st10" cx="-265.9" cy="140.3" r="11.2"/>
		<circle id="XMLID_121_" class="st11" cx="-265.9" cy="-11" r="8.2"/>
		<circle id="XMLID_116_" class="st11" cx="-265.9" cy="575.6" r="8.2"/>
		<circle id="XMLID_115_" class="st11" cx="-265.9" cy="548.7" r="8.2"/>
		<circle id="XMLID_114_" class="st11" cx="-265.9" cy="521.7" r="8.2"/>
	</g>
</g>
<g id="XMLID_303_">
	<line id="XMLID_327_" class="st10" x1="-265.9" y1="134.8" x2="-265.9" y2="146"/>
	<line id="XMLID_321_" class="st10" x1="-271.5" y1="140.4" x2="-260.3" y2="140.4"/>
</g>
<g id="XMLID_9_">
	<line id="XMLID_14_" class="st12" x1="59.9" y1="548.6" x2="59.9" y2="562.9"/>
	<line id="XMLID_13_" class="st12" x1="52.7" y1="555.7" x2="67" y2="555.7"/>
</g>
</svg>
