<?xml version="1.0" encoding="utf-8"?>
<!-- Generator: Adobe Illustrator 22.1.0, SVG Export Plug-In . SVG Version: 6.00 Build 0)  -->
<svg version="1.1" id="Calque_1" xmlns="http://www.w3.org/2000/svg" xmlns:xlink="http://www.w3.org/1999/xlink" x="0px" y="0px"
	 viewBox="0 0 114.9 111.4" style="enable-background:new 0 0 114.9 111.4;" xml:space="preserve">
<style type="text/css">
	.st0{fill:#E72460;}
	.st1{display:none;}
	.st2{display:inline;}
	.st3{fill:#FFFFFF;}
	.st4{display:inline;fill:#FFFFFF;}
</style>
<g>
	<circle class="st0" cx="63.2" cy="59.7" r="51.7"/>
	<g id="XMLID_1591_">
		<g id="XMLID_1629_" class="st1">
			<g id="XMLID_1807_" class="st2">
				<path class="st3" d="M12.9,71.5c-4,0-7.2-0.9-9.5-2.7C1.2,66.8,0,64.6,0,62.1c0-2.7,1.4-5.1,4.1-7.2c2.7-2.1,6.6-3.1,11.7-3.1
					c1.8,0,4,0.2,6.6,0.6l2.4-4.1l-4.6,0.4c-1.7,0-3.8-0.2-6.5-0.7c-2.7-0.5-5-1.3-6.8-2.4c-1.8-1.1-3.2-2.5-4.1-4.2
					c-0.9-1.7-1.4-3.4-1.4-5.2c0-2.9,1-5.5,3.1-7.7c1.2-1.3,3-2.5,5.6-3.5c0.1-3,1.4-6.3,3.9-9.9c2.5-3.6,7.1-8.2,13.6-13.5L28,1.1
					l19.8,6.6l1.1-1.9c0.8-1.4,1.1-1.8,1.3-2c0.8-0.8,2.2-0.8,3,0c0.4,0.4,0.6,0.9,0.6,1.4c0,0.4-0.1,1.2-1.2,3l-8.7,14.8l5.8-0.4
					c2.4-0.1,5.2,0.2,8.4,1c3.2,0.8,6,2,8.3,3.6c2.3,1.6,4.2,3.6,5.5,5.8c1.3,2.3,2,4.8,2,7.5c0,4.9-2.1,9.8-6.1,14.5
					c-4,4.6-11.2,9.5-21.3,14.6L46,69.9l-0.4-0.1c-3.4-1.3-7.4-2.6-11.9-4C25.3,69.5,18.4,71.5,12.9,71.5z M15.8,53.8
					c-4.6,0-8.2,0.9-10.5,2.7C3.1,58.2,2,60.1,2,62.1c0,1.9,0.9,3.5,2.7,5c2,1.6,4.9,2.4,8.8,2.3c-3.3,0-5.9-0.6-7.6-1.8
					c-1.2-0.8-1.9-2-1.9-3.5c0-1.4,0.7-2.5,1.9-3.4c1.6-1.2,3.7-1.8,6.4-1.8c0,0,0,0,0.1,0c4.8,0,11,1.3,18.4,3.7l2.4,0.8l-2.3,1.1
					c-4.4,2-8.4,3.4-11.9,4.2c4.1-0.9,8.9-2.5,14.2-5l0.3-0.2l0.4,0.1c4.5,1.4,8.5,2.7,12,4c9.7-4.9,16.5-9.5,20.3-13.9
					c3.8-4.3,5.7-8.8,5.7-13.2c0-2.4-0.6-4.6-1.8-6.5c-1.2-2-2.8-3.7-4.9-5.2c-2.1-1.5-4.7-2.6-7.6-3.3c-3-0.7-5.6-1-7.8-1l-9.6,0.6
					l0,0l-0.5,0c-7.1,0.6-11.5,0.9-13.5,0.9c-3.3,0-5.8-0.8-7.5-2.3c-1.7-1.5-2.6-3.5-2.6-5.9c0-1.6,0.5-3.1,1.4-4.5
					c-0.7,0.8-1.3,1.6-1.8,2.4c-2.3,3.4-3.5,6.4-3.5,8.9l0.1,1.2l-0.3,0.1l0.3,0.8c0.8,1.8,1.8,3.1,3.4,4c1.5,0.9,4.3,1.3,8.1,1.3
					c3.6,0,7.3-0.3,11.1-0.8l2-0.3l-0.1,0.2l0.5-0.1c4.5-0.6,8.3-0.8,11.2-0.8c3.7,0,7,0.7,9.9,2c2.9,1.3,5.1,3.2,6.5,5.5
					c1.4,2.3,2.1,4.6,2.1,7c0,3.6-1.1,6.9-3.4,9.8c-2.2,2.9-5.3,5.6-9.3,8l-0.4,0.2l-12.2-3.2l2.5-1.2c6.3-2.9,10.4-5.3,12.2-7.1
					c1.7-1.8,2.6-3.6,2.6-5.4c0-2.1-0.9-3.9-2.6-5.4c-1.8-1.5-4.5-2.3-8-2.3c-2.7,0-7.6,0.4-14.7,1l-1.9,0.2l0-0.1l-0.5,0.1
					c-3.9,0.5-7.1,0.7-9.7,0.7c-5.6,0-9.5-0.8-11.8-2.5c-1.9-1.4-2.9-3.2-2.9-5.4c0-2.2,1-4,3.1-5.5c-1.9,0.8-3.3,1.8-4.2,2.7
					c-1.7,1.9-2.5,4-2.5,6.4c0,1.5,0.4,2.9,1.1,4.3c0.7,1.4,1.9,2.5,3.4,3.5c1.6,1,3.6,1.7,6.1,2.1c2.5,0.4,4.6,0.7,6,0.6l8.9-0.7
					c2,0,6.2-0.3,12.7-1c2.3-0.3,4.4-0.4,6-0.4c1.5,0,2.9,0.5,3.9,1.4c1,1,1.6,2.1,1.6,3.3c0,3.5-3.7,6.9-11.4,10.4l-0.4,0.2
					L41,59.7c-4.5-1.6-7.7-2.6-9.4-3.1c-1.7-0.5-4-1.1-6.8-1.7l-1.3-0.3l0,0l-0.7-0.1C20.1,54,17.7,53.8,15.8,53.8z M12.3,61
					C12.3,61,12.3,61,12.3,61c-2.3,0-4,0.5-5.2,1.4C6.3,62.9,6,63.5,6,64.2C6,65,6.3,65.5,7,66c1.4,1,3.5,1.4,6.2,1.4
					c3.8,0,8.7-1.2,14.4-3.6C21.5,61.9,16.4,61,12.3,61z M47.6,59.3l6,1.6c3.6-2.3,6.4-4.7,8.4-7.3c2-2.6,3-5.5,3-8.6
					c0-2-0.6-4-1.8-6c-1.2-1.9-3.1-3.5-5.7-4.7c-2.6-1.2-5.6-1.8-9.1-1.8c-2.7,0-6.2,0.3-10.5,0.8l-2.3,4.1
					c6.1-0.6,10.4-0.9,12.9-0.9c4,0,7.1,0.9,9.3,2.8c2.2,1.9,3.3,4.2,3.3,6.9c0,2.3-1.1,4.6-3.2,6.8C56.2,54.8,52.8,56.9,47.6,59.3z
					 M26.6,53.2c2.2,0.5,4.1,1,5.6,1.4c1.7,0.5,4.8,1.5,9.1,3c8.1-3.8,9.8-6.7,9.8-8.4c0-0.7-0.3-1.3-0.9-1.9
					c-0.7-0.6-1.5-0.9-2.5-0.9c-1.5,0-3.5,0.1-5.8,0.4c-6,0.6-10.1,1-12.3,1L26.6,53.2z M10.9,29c-1.2,1-1.8,2.2-1.8,3.6
					c0,1.5,0.7,2.7,2.1,3.7c2,1.4,5.6,2.1,10.7,2.1c2.3,0,5.3-0.2,8.9-0.6l2.3-4c-3.2,0.4-6.3,0.6-9.4,0.6c-4.3,0-7.2-0.5-9.1-1.6
					C13,31.9,11.8,30.6,10.9,29z M26.5,9.3c2.1,0,4.5,0.4,7.2,1.2c2.6,0.8,6.4,2.4,11.1,4.7l0.9,0.5l-4.9,8.7L50.8,7.2
					c0.9-1.5,1-1.9,1-2v0l-0.1,0c0,0-0.3,0.3-1,1.5l-1.9,3.3L28.4,3.4c-3.8,3.1-6.9,5.9-9.2,8.4C21.1,10.1,23.5,9.3,26.5,9.3z
					 M26.5,11.3c-2.6,0-4.6,0.7-6.1,2.1c-1.5,1.4-2.3,3-2.3,4.8c0,1.8,0.6,3.2,1.9,4.4c1.3,1.2,3.4,1.8,6.1,1.8
					c1.9,0,6.2-0.3,12.8-0.8l3.9-6.9c-4.1-2-7.4-3.4-9.8-4.1C30.6,11.6,28.3,11.3,26.5,11.3z"/>
			</g>
			<path class="st4" d="M47.6,59.2c-4.1,0-7.4-3.3-7.4-7.4c0-4.1,3.3-7.4,7.4-7.4s7.4,3.3,7.4,7.4C55,55.9,51.7,59.2,47.6,59.2z
				 M47.6,46.5c-3,0-5.4,2.4-5.4,5.4s2.4,5.4,5.4,5.4s5.4-2.4,5.4-5.4S50.6,46.5,47.6,46.5z"/>
			<path class="st4" d="M50.4,68.7c-10.5,0-19-8.5-19-19c0-10.5,8.5-19,19-19s19,8.5,19,19C69.4,60.2,60.9,68.7,50.4,68.7z
				 M50.4,32.8c-9.3,0-17,7.6-17,17c0,9.3,7.6,17,17,17c9.3,0,17-7.6,17-17C67.4,40.4,59.8,32.8,50.4,32.8z"/>
			<path class="st4" d="M14.7,39.4c-4.5,0-8.2-3.7-8.2-8.2s3.7-8.2,8.2-8.2s8.2,3.7,8.2,8.2S19.2,39.4,14.7,39.4z M14.7,25
				c-3.4,0-6.2,2.8-6.2,6.2s2.8,6.2,6.2,6.2c3.4,0,6.2-2.8,6.2-6.2S18.1,25,14.7,25z"/>
			<path class="st4" d="M24.6,26.1c-5.4,0-9.8-4.4-9.8-9.8s4.4-9.8,9.8-9.8s9.8,4.4,9.8,9.8S30.1,26.1,24.6,26.1z M24.6,8.5
				c-4.3,0-7.8,3.5-7.8,7.8s3.5,7.8,7.8,7.8c4.3,0,7.8-3.5,7.8-7.8S29,8.5,24.6,8.5z"/>
			<path class="st4" d="M9.1,71.1c-3.1,0-5.6-2.5-5.6-5.6s2.5-5.6,5.6-5.6s5.6,2.5,5.6,5.6S12.2,71.1,9.1,71.1z M9.1,61.8
				c-2,0-3.6,1.6-3.6,3.6c0,2,1.6,3.6,3.6,3.6s3.6-1.6,3.6-3.6C12.7,63.5,11.1,61.8,9.1,61.8z"/>
		</g>
		<g id="XMLID_1616_">
			<path class="st3" d="M41,59.7c-4.5-1.6-7.7-2.6-9.4-3.1c-1.7-0.5-4-1.1-6.8-1.7l0.4-2c2.8,0.6,5.1,1.2,6.9,1.7
				c1.8,0.5,5,1.6,9.5,3.2L41,59.7z"/>
			<g id="XMLID_1623_">
				<path class="st3" d="M6.3,70.3c-1-0.4-2-1-2.8-1.6C1.2,66.8,0,64.6,0,62.1c0-2.7,1.4-5.1,4.1-7.2c2.7-2.1,6.6-3.1,11.7-3.1
					c2,0,4.4,0.2,7.3,0.7l2.1,0.4c2.8,0.6,5.2,1.2,6.9,1.7c1.8,0.5,5,1.6,9.5,3.2c0,0,2.3,0.8,4.9,1.5l0,0c4.2,1.3,8.8,1.5,13.1,0.3
					l5.2-1.4l-4.4,3.2c-3.7,2.7-8.5,5.5-14.2,8.3L46,69.9l-0.4-0.1c-3.5-1.3-7.6-2.7-12.3-4.1l-3.1-1C22.9,62.2,16.9,61,12.3,61
					c0,0,0,0,0,0c-2.2,0-4,0.5-5.2,1.4c-0.3,0.2-0.5,0.4-0.6,0.6c-0.7,0.7-1,1.6-1,2.5c0,1.3,0.6,2.4,1.7,3.1L6.3,70.3z M12.3,59
					c4.8,0,11,1.3,18.4,3.7l3.1,1c4.5,1.4,8.5,2.7,12,4c3.6-1.8,6.9-3.6,9.7-5.4c-3.2,0.2-6.5-0.2-9.5-1.1c-2.7-0.8-5-1.5-5-1.5
					c-4.5-1.6-7.7-2.6-9.4-3.1c-1.7-0.5-4-1.1-6.8-1.7l-2-0.4c-2.8-0.5-5.1-0.7-7-0.7c-4.6,0-8.2,0.9-10.5,2.7
					C3.1,58.2,2,60.1,2,62.1c0,1.4,0.5,2.7,1.5,3.8c0-0.2,0-0.3,0-0.5c0-1.4,0.5-2.7,1.5-3.8c0.2-0.3,0.6-0.6,1-0.9
					C7.5,59.6,9.6,59,12.3,59C12.3,59,12.3,59,12.3,59z"/>
			</g>
		</g>
		<path class="st3" d="M66.4,56.9l0.8-4.1c0.2-1,0.3-2.1,0.3-3.1c0-7.1-4.5-13.5-11.2-15.9c-1.9-0.7-3.8-1-5.8-1l-13.1,0.5L35,33.5
			c-3.8,0.5-7.7,0.8-11.3,0.8c-4.3,0-7.2-0.5-9.1-1.6c-1.9-1.1-3.3-2.7-4.2-4.9l0-0.1c-0.3-1.3-0.3-2.7-0.3-2.8
			c0-2.9,1.3-6.3,3.9-10c0.5-0.7,1-1.4,1.6-2.1l3.5-4.3l-1.8,5.3c-0.3,0.8-0.4,1.7-0.4,2.6c0,3.9,2.8,7.1,6.6,7.7
			c0.4,0.1,0.8,0.1,1.3,0.1l17.2-0.9l7.7-0.5c2.4-0.1,5.2,0.2,8.4,1c3.2,0.8,6,2,8.3,3.6c2.3,1.6,4.2,3.6,5.5,5.8
			c1.3,2.3,2,4.8,2,7.5c0,4.4-1.6,8.8-4.9,13L66.4,56.9z M50.4,30.8c2.3,0,4.4,0.4,6.5,1.1c7.3,2.7,12.3,9.6,12.5,17.4
			c1.6-2.8,2.4-5.7,2.4-8.6c0-2.4-0.6-4.6-1.8-6.5c-1.2-2-2.8-3.7-4.9-5.2c-2.1-1.5-4.7-2.6-7.6-3.3c-3-0.7-5.6-1-7.8-1l-10.1,0.7
			l-14.9,0.8c-0.6,0-1.1,0-1.6-0.1c-4.5-0.7-7.8-4.4-8.2-8.9c-1.8,2.9-2.8,5.6-2.8,7.9c0,0.1-0.1,1.2,0.2,2.1
			c0.8,1.8,1.8,3.1,3.3,3.9c1.5,0.9,4.3,1.3,8.1,1.3c3.6,0,7.3-0.3,11.1-0.8l2.5-0.2L50.4,30.8C50.4,30.8,50.4,30.8,50.4,30.8z"/>
		<path class="st3" d="M49.6,58.4l2.5-3.7c0.6-0.9,0.9-2,0.9-3.1c0-2.9-2.4-5.4-5.1-5.4c-0.1,0-0.1,0-0.2,0L40.3,47
			c-5.7,0.6-9.4,0.9-11.3,0.9l-8.8,0.7c-1.7,0-3.8-0.2-6.5-0.7c-2.7-0.5-5-1.3-6.8-2.4c-1.8-1.1-3.2-2.5-4.1-4.2
			c-0.9-1.7-1.4-3.4-1.4-5.2c0-2.9,1-5.5,3.1-7.7c1-1.1,2.6-2.2,4.6-3.1l4.6-2.1l-3.5,3.7c-1.1,1.2-1.7,2.7-1.7,4.3
			c0,1.7,0.7,3.2,1.8,4.4c0.2,0.2,0.5,0.5,0.8,0.7c2,1.4,5.6,2.1,10.7,2.1c2.5,0,5.6-0.2,9.4-0.7l2.4-0.2c7.1-0.7,12.1-1.1,14.8-1.1
			c4,0,7.1,0.9,9.3,2.8h0c2.2,1.9,3.3,4.2,3.3,6.9c0,2.3-1.1,4.6-3.2,6.7c-0.9,0.9-2.3,1.9-4.5,3.2L49.6,58.4z M47.9,44.2
			c4,0,7.2,3.3,7.2,7.4c0,0.4,0,0.8-0.1,1.2c0.7-0.5,1.2-0.9,1.6-1.3c1.8-1.8,2.6-3.5,2.6-5.3c0-2.1-0.9-3.8-2.6-5.4l0,0
			c-1.8-1.5-4.5-2.3-8-2.3c-2.7,0-7.6,0.4-14.7,1l-2.4,0.2c-3.8,0.5-7.1,0.7-9.6,0.7c-5.6,0-9.5-0.8-11.8-2.5
			c-0.4-0.3-0.8-0.6-1.1-0.9c-1.6-1.5-2.4-3.6-2.4-5.8c0-0.8,0.1-1.5,0.3-2.2c-0.3,0.3-0.6,0.5-0.8,0.8c-1.7,1.9-2.5,4-2.5,6.4
			c0,1.5,0.4,2.9,1.1,4.3c0.7,1.4,1.9,2.5,3.4,3.5c1.6,1,3.6,1.7,6.1,2.1c2.5,0.4,4.6,0.7,6,0.6l8.8-0.7c1.9,0,5.6-0.3,11.2-0.9
			l7.5-0.8C47.7,44.2,47.8,44.2,47.9,44.2z"/>
		<g id="XMLID_1603_">
			
				<rect x="38.4" y="-6.1" transform="matrix(0.3171 -0.9484 0.9484 0.3171 22.6231 40.3856)" class="st3" width="2" height="21.2"/>
			<path class="st3" d="M47.9,15.9l-0.8-0.4c-0.2-0.1-15.6-8.4-27.9-4L15.1,13l3.1-3.2c2.5-2.5,7-6.7,10.5-9.5L29.1,0l24.1,8
				L47.9,15.9z M27.3,8.2c9,0,17.3,3.8,19.9,5.1l2.8-4.2L29.5,2.2c-2.2,1.8-4.9,4.2-7.2,6.3C24,8.3,25.7,8.2,27.3,8.2z"/>
		</g>
	</g>
</g>
</svg>
